<?xml version="1.0" standalone="no"?>
<!DOCTYPE svg PUBLIC "-//W3C//DTD SVG 20010904//EN"
 "http://www.w3.org/TR/2001/REC-SVG-20010904/DTD/svg10.dtd">
<svg version="1.0" xmlns="http://www.w3.org/2000/svg"
 width="223.000000pt" height="240.000000pt" viewBox="0 0 223.000000 240.000000"
 preserveAspectRatio="xMidYMid meet">

<g transform="translate(0.000000,240.000000) scale(0.100000,-0.100000)"
fill="#000000" stroke="none">
<path d="M825 2185 c-159 -58 -386 -139 -503 -181 l-214 -77 6 -51 c3 -28 35
-307 71 -621 36 -314 68 -593 71 -622 l6 -52 425 -236 c255 -143 432 -235 443
-232 17 4 828 453 842 466 4 3 30 202 57 441 28 239 63 540 77 667 15 128 25
235 22 239 -6 5 -970 353 -998 360 -8 2 -145 -44 -305 -101z m426 -422 c67
-153 204 -464 305 -691 101 -227 186 -421 189 -432 6 -19 1 -20 -113 -20
l-119 0 -63 160 -63 160 -267 0 -267 0 -63 -160 -63 -160 -119 0 c-65 0 -118
3 -118 8 0 15 623 1412 630 1412 5 0 63 -125 131 -277z"/>
<path d="M1116 1562 c-4 -7 -45 -103 -91 -215 l-83 -202 175 -3 c97 -1 177 -1
179 1 2 2 -33 91 -77 198 -45 107 -84 203 -88 213 -5 13 -10 16 -15 8z"/>
</g>
</svg>
