<?xml version="1.0" standalone="no"?>
<!DOCTYPE svg PUBLIC "-//W3C//DTD SVG 20010904//EN"
 "http://www.w3.org/TR/2001/REC-SVG-20010904/DTD/svg10.dtd">
<svg version="1.0" xmlns="http://www.w3.org/2000/svg"
 width="520.000000pt" height="240.000000pt" viewBox="0 0 520.000000 240.000000"
 preserveAspectRatio="xMidYMid meet">

<g transform="translate(0.000000,240.000000) scale(0.100000,-0.100000)"
fill="#000000" stroke="none">
<path d="M1402 2046 c-136 -123 -337 -305 -447 -404 -110 -100 -204 -182 -210
-182 -5 0 -52 32 -103 70 -51 39 -97 68 -102 65 -5 -3 -12 0 -16 6 -5 8 -3 9
6 4 9 -5 11 -4 6 4 -4 6 -13 11 -19 10 -23 -4 -46 12 -40 28 5 13 3 13 -16 4
-14 -8 -61 -11 -125 -10 -56 1 -108 -1 -114 -5 -7 -4 -12 -3 -12 3 0 17 -52
-7 -69 -32 -17 -23 -22 -52 -15 -78 2 -9 78 -84 169 -168 91 -84 165 -156 165
-161 0 -4 -73 -74 -163 -156 -89 -82 -167 -156 -174 -164 -7 -8 -13 -31 -13
-50 0 -31 9 -44 80 -112 90 -86 123 -100 170 -71 16 10 111 80 211 156 l181
138 52 -48 c29 -26 226 -208 439 -403 213 -195 399 -359 412 -364 34 -13 76 3
92 34 9 18 13 95 13 277 l0 252 -262 197 c-232 174 -375 283 -401 304 -5 4
140 121 322 259 l331 252 0 263 c0 261 0 263 -23 284 -48 45 -60 38 -325 -202z
m-1162 -436 c0 -5 -4 -10 -10 -10 -5 0 -10 5 -10 10 0 6 5 10 10 10 6 0 10 -4
10 -10z m40 0 c0 -5 -4 -10 -10 -10 -5 0 -10 5 -10 10 0 6 5 10 10 10 6 0 10
-4 10 -10z m60 0 c0 -5 -4 -10 -10 -10 -5 0 -10 5 -10 10 0 6 5 10 10 10 6 0
10 -4 10 -10z m105 0 c3 -5 -1 -10 -9 -10 -9 0 -16 5 -16 10 0 6 4 10 9 10 6
0 13 -4 16 -10z"/>
<path d="M2517 1803 c-4 -3 -7 -263 -7 -578 0 -431 3 -574 12 -583 9 -9 283
-12 1170 -12 l1158 0 10 26 c14 36 13 1109 0 1135 -10 19 -34 19 -1174 19
-639 0 -1166 -3 -1169 -7z m533 -498 c0 -225 -2 -246 -17 -253 -10 -4 -61 -7
-113 -7 -108 0 -148 16 -188 76 -20 29 -23 44 -20 101 4 75 21 107 78 146 25
17 47 22 91 22 l59 0 0 80 0 80 55 0 55 0 0 -245z m160 189 l0 -55 -52 3 -53
3 -3 39 c-5 59 1 66 58 66 l50 0 0 -56z m1362 -120 c14 -8 37 -28 50 -46 19
-28 23 -45 23 -110 0 -85 -14 -114 -75 -155 -47 -32 -143 -32 -190 0 -98 65
-103 229 -9 299 51 38 139 43 201 12z m-1362 -166 c0 -205 -10 -245 -68 -286
-37 -27 -38 -27 -92 -1 l-43 21 36 32 c20 17 41 44 47 59 5 16 10 99 10 186 0
87 3 161 7 164 3 4 28 7 55 7 l48 0 0 -182z m297 158 c28 -24 28 -24 31 -169
l3 -144 -38 -6 c-66 -11 -162 -8 -198 7 -72 31 -67 150 9 181 19 8 53 17 75
21 46 7 54 14 45 38 -8 20 -58 21 -113 1 l-41 -14 0 43 c0 40 2 44 33 54 17 5
62 10 99 11 57 1 71 -3 95 -23z m359 -10 l35 -35 -3 -138 -3 -138 -50 0 -50 0
-3 122 c-2 112 -4 124 -23 134 -12 6 -32 8 -45 5 -23 -6 -23 -9 -26 -134 l-3
-127 -52 -3 -53 -3 0 165 0 165 33 10 c17 5 72 10 121 10 87 1 88 1 122 -33z
m440 21 c9 -9 -22 -77 -36 -77 -6 0 -10 -49 -10 -132 0 -73 -5 -150 -10 -170
-25 -89 -103 -134 -219 -126 -37 3 -73 8 -80 12 -6 4 -11 29 -11 56 l0 49 46
-16 c81 -28 164 -1 164 54 0 21 -3 23 -39 17 -153 -24 -242 174 -127 285 51
49 95 61 213 59 56 -2 105 -6 109 -11z"/>
<path d="M2864 1296 c-36 -16 -44 -32 -44 -86 0 -48 37 -83 84 -78 l31 3 3 79
c4 98 -8 111 -74 82z"/>
<path d="M4441 1291 c-28 -28 -36 -81 -17 -124 13 -33 19 -37 50 -37 44 0 66
29 66 86 0 47 -30 94 -61 94 -10 0 -28 -9 -38 -19z"/>
<path d="M3380 1177 c-14 -7 -25 -21 -25 -32 0 -16 8 -21 43 -23 l42 -3 0 35
c0 40 -15 46 -60 23z"/>
<path d="M4100 1297 c-28 -10 -38 -20 -49 -53 -12 -34 -12 -44 0 -69 15 -31
56 -52 83 -42 13 5 16 22 16 92 0 47 -3 85 -7 84 -5 0 -24 -5 -43 -12z"/>
</g>
</svg>
