<?xml version="1.0" standalone="no"?>
<!DOCTYPE svg PUBLIC "-//W3C//DTD SVG 20010904//EN"
 "http://www.w3.org/TR/2001/REC-SVG-20010904/DTD/svg10.dtd">
<svg version="1.0" xmlns="http://www.w3.org/2000/svg"
 width="371.000000pt" height="210.000000pt" viewBox="0 0 371.000000 210.000000"
 preserveAspectRatio="xMidYMid meet">

<g transform="translate(0.000000,210.000000) scale(0.100000,-0.100000)"
fill="#000000" stroke="none">
<path d="M342 2030 c3 -54 2 -56 -36 -39 -58 27 -106 -20 -106 -104 0 -62 29
-97 79 -97 20 0 43 6 50 13 11 10 14 10 18 0 3 -7 11 -13 19 -13 11 0 14 27
14 145 0 141 -1 145 -21 145 -19 0 -21 -5 -17 -50z m-24 -76 c17 -12 22 -25
22 -63 0 -26 -5 -52 -12 -59 -17 -17 -54 -15 -72 4 -23 23 -21 89 4 114 24 24
29 24 58 4z"/>
<path d="M452 2053 c5 -26 38 -29 38 -4 0 15 -6 21 -21 21 -14 0 -19 -5 -17
-17z"/>
<path d="M592 1989 c-32 -12 -17 -32 19 -24 43 10 69 -2 69 -31 0 -22 -4 -24
-45 -24 -71 0 -112 -61 -69 -104 18 -19 85 -21 103 -3 11 10 14 10 18 0 3 -7
11 -13 19 -13 11 0 14 19 14 89 0 82 -2 91 -22 105 -25 18 -70 20 -106 5z m88
-122 c0 -31 -18 -47 -51 -47 -32 0 -43 12 -34 39 6 20 22 28 63 30 17 1 22 -4
22 -22z"/>
<path d="M842 1984 c-12 -8 -22 -10 -22 -5 0 6 -9 11 -20 11 -19 0 -20 -7 -20
-100 0 -93 1 -100 20 -100 18 0 20 7 20 59 0 76 13 109 45 117 44 11 55 -9 55
-97 0 -72 2 -79 20 -79 18 0 20 7 20 85 0 72 -3 88 -20 105 -24 24 -67 26 -98
4z"/>
<path d="M1045 1976 c-29 -29 -32 -52 -9 -84 13 -19 13 -26 3 -38 -10 -12 -10
-20 -1 -35 10 -15 8 -20 -8 -29 -27 -14 -27 -66 -1 -80 26 -14 107 -13 134 1
29 15 37 28 37 60 0 36 -18 49 -71 49 -27 0 -51 6 -58 13 -14 18 -4 27 29 27
15 0 40 10 55 22 22 17 26 27 22 54 -5 27 -2 33 16 38 32 8 19 13 -55 21 -63
6 -69 5 -93 -19z m90 -46 c0 -32 -3 -35 -32 -38 -24 -2 -33 1 -38 17 -3 12 -3
30 0 42 5 16 14 19 38 17 29 -3 32 -6 32 -38z m25 -155 c17 -21 -2 -43 -45
-51 -55 -10 -94 23 -63 54 17 17 93 15 108 -3z"/>
<path d="M1294 1991 c-51 -22 -70 -101 -39 -160 17 -33 33 -41 86 -41 64 0 98
50 86 127 -4 20 -15 45 -25 55 -21 22 -78 31 -108 19z m76 -41 c38 -38 16
-130 -32 -130 -35 0 -58 29 -58 72 0 40 27 78 55 78 8 0 24 -9 35 -20z"/>
<path d="M448 1863 c-3 -124 -4 -128 -25 -131 -35 -5 -29 -32 6 -32 54 0 61
18 61 161 0 122 -1 129 -20 129 -18 0 -20 -8 -22 -127z"/>
<path d="M2205 1576 c-98 -25 -172 -79 -210 -155 -28 -56 -31 -165 -6 -238 12
-34 21 -64 21 -65 0 -2 -150 -3 -333 -3 l-332 0 0 155 0 155 60 1 c33 1 133 2
223 3 l162 1 0 70 0 70 -310 0 -310 0 0 -485 0 -485 -129 0 -128 0 -48 72
c-63 94 -165 265 -165 275 0 4 20 19 44 32 60 31 114 86 140 141 16 35 20 65
21 136 0 81 -3 96 -30 149 -37 73 -93 117 -181 145 -58 17 -93 20 -285 20
l-219 0 0 -560 0 -560 85 0 85 0 0 230 0 230 89 0 89 0 88 -142 c48 -79 111
-180 140 -225 52 -81 113 -147 146 -158 9 -3 48 10 87 30 l71 35 360 0 360 0
0 80 0 80 -225 0 -225 0 2 178 3 177 442 2 442 2 88 -43 c126 -62 163 -104
163 -185 0 -46 -32 -97 -78 -124 -69 -40 -250 -29 -383 23 -27 11 -52 20 -55
20 -3 0 -4 -37 -2 -83 l3 -82 70 -24 c61 -21 88 -25 215 -25 142 -1 146 0 211
31 132 61 190 144 191 271 1 95 -18 146 -75 209 -49 53 -71 66 -268 156 -130
60 -181 125 -165 209 7 40 57 95 95 106 58 16 174 6 260 -22 85 -29 100 -27
101 12 0 10 49 12 238 10 l237 -3 0 -488 0 -487 88 0 87 0 0 490 0 491 160 -3
160 -3 0 72 0 72 -572 5 c-315 3 -611 7 -658 10 -52 3 -104 0 -135 -8z m1005
-19 l335 -2 3 -52 3 -53 -45 -1 c-26 -1 -50 -3 -56 -4 -5 -1 -57 -3 -115 -4
l-105 -1 0 -485 0 -485 -70 0 -70 0 0 481 c0 265 -2 484 -5 487 -2 3 -114 4
-247 3 -210 -1 -245 -4 -255 -18 -11 -15 -17 -14 -74 2 -34 9 -71 18 -83 20
-12 2 -40 6 -62 9 -54 8 -142 -9 -174 -33 -41 -30 -63 -78 -62 -132 2 -98 32
-126 242 -226 161 -77 208 -112 241 -180 32 -66 32 -180 0 -246 -29 -61 -98
-121 -170 -148 -105 -39 -319 -35 -433 10 -26 10 -28 14 -28 72 0 54 2 61 18
56 127 -42 164 -49 257 -51 89 -1 106 2 149 24 61 31 87 64 93 123 11 97 -29
148 -177 222 l-90 45 -455 0 -455 -1 0 -199 0 -200 223 -2 222 -3 3 -57 3 -58
-352 0 -352 0 -68 -35 c-38 -19 -73 -35 -77 -35 -24 0 -172 177 -172 205 0 3
-17 32 -38 63 -21 31 -65 100 -97 154 -66 109 -64 108 -196 108 l-79 0 0 -230
0 -231 -65 3 -66 3 0 525 c0 289 0 533 1 544 0 18 9 18 208 13 222 -5 278 -16
354 -63 82 -52 125 -151 116 -268 -9 -104 -60 -178 -166 -238 l-52 -30 36 -67
c21 -36 74 -121 118 -188 l81 -123 142 0 143 0 2 488 3 487 285 0 285 0 0 -55
0 -55 -222 -3 -223 -2 0 -175 0 -175 365 1 c201 0 365 2 365 5 0 2 -12 27 -26
54 -32 61 -42 159 -24 225 23 83 112 162 207 184 21 5 180 6 353 4 173 -3 466
-6 650 -6z"/>
<path d="M340 1234 l0 -207 123 5 c129 5 180 19 226 61 58 53 77 157 42 232
-40 88 -106 115 -276 115 l-115 0 0 -206z m203 187 c92 -12 137 -37 165 -91
48 -94 16 -204 -72 -249 -41 -21 -66 -25 -162 -29 l-114 -5 0 192 0 191 58 0
c31 -1 87 -5 125 -9z"/>
<path d="M1556 278 c-9 -12 -16 -31 -16 -41 0 -9 -7 -20 -15 -23 -8 -4 -15
-10 -15 -15 0 -5 7 -9 15 -9 12 0 15 -17 15 -90 0 -83 1 -90 20 -90 19 0 20 7
20 90 0 89 0 90 25 90 16 0 25 6 25 15 0 9 -9 15 -25 15 -14 0 -25 4 -25 9 0
27 15 41 41 41 19 0 29 5 29 15 0 26 -75 20 -94 -7z"/>
<path d="M3380 155 c0 -137 1 -145 19 -145 16 0 20 8 23 42 4 58 26 59 63 3
21 -32 37 -45 53 -45 23 0 23 1 -10 45 -18 25 -37 52 -42 59 -7 10 2 27 29 60
30 38 34 46 19 46 -10 0 -40 -21 -66 -47 l-48 -47 0 87 c0 80 -2 87 -20 87
-19 0 -20 -7 -20 -145z"/>
<path d="M1680 115 c0 -98 1 -105 20 -105 18 0 20 7 20 66 0 78 10 100 50 109
16 4 30 13 30 21 0 19 -44 18 -60 -1 -7 -8 -16 -15 -21 -15 -5 0 -9 7 -9 15 0
8 -7 15 -15 15 -12 0 -15 -18 -15 -105z"/>
<path d="M1873 213 c-7 -2 -13 -11 -13 -19 0 -11 9 -13 42 -8 33 6 44 4 55
-11 21 -29 16 -34 -38 -41 -79 -11 -109 -51 -73 -102 18 -26 69 -30 99 -8 17
12 21 12 31 -2 22 -30 29 -3 24 87 -4 67 -9 94 -20 101 -16 10 -86 12 -107 3z
m91 -111 c3 -4 -1 -19 -7 -33 -18 -34 -71 -35 -75 0 -2 13 2 28 10 32 17 11
65 12 72 1z"/>
<path d="M2070 114 c0 -95 2 -105 18 -102 14 3 18 16 20 78 3 81 12 100 48
100 33 0 44 -28 44 -109 0 -64 2 -71 20 -71 18 0 20 7 20 71 0 81 11 109 43
109 38 0 47 -19 47 -102 0 -71 2 -78 20 -78 18 0 20 7 20 83 0 99 -14 127 -63
127 -18 0 -42 -6 -53 -14 -17 -12 -22 -12 -39 0 -23 17 -59 18 -88 3 -16 -9
-22 -9 -25 0 -2 6 -10 11 -18 11 -11 0 -14 -21 -14 -106z"/>
<path d="M2463 205 c-53 -37 -48 -151 7 -180 47 -24 130 -18 130 10 0 8 -14
11 -48 7 -53 -5 -82 13 -82 49 0 17 8 19 70 19 l70 0 -7 33 c-13 69 -85 101
-140 62z m85 -27 c25 -25 13 -38 -33 -38 -30 0 -45 4 -45 13 0 19 21 37 45 37
12 0 26 -5 33 -12z"/>
<path d="M2640 210 c0 -6 12 -53 27 -105 23 -83 29 -95 49 -95 19 0 25 11 45
86 13 49 25 80 29 72 4 -7 15 -46 25 -85 15 -65 20 -73 41 -73 18 0 25 8 33
38 6 20 19 67 30 105 19 66 19 67 1 67 -15 0 -23 -13 -35 -57 -9 -32 -20 -69
-24 -83 l-8 -25 -7 30 c-27 112 -37 135 -59 135 -19 0 -25 -10 -41 -67 -28
-101 -31 -101 -51 -14 -15 65 -22 81 -37 81 -10 0 -18 -5 -18 -10z"/>
<path d="M2995 195 c-21 -20 -25 -34 -25 -80 0 -48 4 -60 26 -80 31 -29 87
-33 121 -10 33 23 48 79 34 126 -14 47 -44 69 -94 69 -27 0 -45 -7 -62 -25z
m89 -11 c24 -9 39 -66 26 -100 -29 -75 -100 -53 -100 31 0 60 28 87 74 69z"/>
<path d="M3210 115 c0 -98 1 -105 20 -105 18 0 20 7 20 69 0 63 2 71 26 90 15
12 33 21 40 21 8 0 14 7 14 15 0 19 -30 19 -56 0 -25 -19 -34 -19 -34 0 0 8
-7 15 -15 15 -12 0 -15 -18 -15 -105z"/>
</g>
</svg>
