<?xml version="1.0" standalone="no"?>
<!DOCTYPE svg PUBLIC "-//W3C//DTD SVG 20010904//EN"
 "http://www.w3.org/TR/2001/REC-SVG-20010904/DTD/svg10.dtd">
<svg version="1.0" xmlns="http://www.w3.org/2000/svg"
 width="440.000000pt" height="240.000000pt" viewBox="0 0 440.000000 240.000000"
 preserveAspectRatio="xMidYMid meet">

<g transform="translate(0.000000,240.000000) scale(0.100000,-0.100000)"
fill="#000000" stroke="none">
<path d="M372 2283 c-7 -2 -17 -13 -22 -24 -12 -22 6 -63 39 -92 26 -21 18
-42 -34 -81 -34 -26 -35 -29 -29 -75 7 -53 -7 -76 -54 -87 -45 -11 -72 -33
-72 -59 0 -13 7 -28 16 -33 14 -8 13 -10 -8 -15 -14 -4 -42 -25 -62 -47 -32
-36 -36 -46 -36 -94 0 -33 8 -72 21 -101 12 -27 41 -125 64 -219 57 -230 115
-370 233 -565 59 -99 187 -265 245 -318 135 -125 300 -225 458 -277 295 -98
779 -114 1058 -35 47 14 88 19 114 16 25 -3 51 0 67 8 14 7 44 16 65 20 90 15
105 24 105 60 0 40 -10 45 -101 45 -39 0 -79 5 -90 11 -16 8 -25 7 -40 -7 -18
-16 -26 -17 -78 -6 -31 7 -78 12 -104 12 -26 0 -47 4 -47 10 0 5 14 29 31 54
17 24 28 49 25 55 -21 34 -133 -19 -119 -56 5 -11 3 -14 -6 -9 -8 5 -23 -2
-41 -19 l-27 -26 -85 20 c-275 65 -473 196 -655 432 -152 197 -206 396 -229
844 -6 116 -5 133 10 148 22 22 30 21 106 -3 68 -22 106 -25 114 -11 20 32
-49 80 -178 127 -54 19 -114 45 -134 59 -20 14 -45 25 -55 25 -9 0 -22 11 -27
24 -9 24 -54 46 -94 46 -12 0 -37 8 -56 18 -28 14 -35 23 -35 47 0 30 0 30
-65 33 -83 4 -92 12 -84 72 6 42 4 49 -17 64 -23 15 -61 20 -87 9z m66 -15
c22 -22 12 -36 -28 -40 -43 -4 -52 9 -24 36 19 19 36 20 52 4z m107 -158 c4
-6 -6 -10 -22 -10 -22 0 -25 2 -13 10 19 12 27 12 35 0z m47 -82 c23 -9 27
-14 21 -37 -8 -34 -8 -34 -37 -27 -24 6 -56 50 -56 76 0 12 20 8 72 -12z m-72
-43 c14 -17 8 -18 -41 -8 -28 5 -30 7 -14 14 30 12 41 10 55 -6z m182 -39 c-2
-10 3 -25 10 -33 11 -14 10 -15 -10 -9 -18 6 -22 4 -22 -14 0 -37 -30 -36 -61
1 -19 23 -29 29 -29 18 0 -14 -10 -16 -67 -12 -38 3 -69 6 -70 7 -5 4 233 64
242 61 6 -1 9 -10 7 -19z m-263 -50 c-2 -1 -19 -8 -36 -14 -37 -12 -45 -6 -10
8 22 9 54 13 46 6z m569 -36 c7 -62 -125 -119 -323 -138 -72 -7 -105 -16 -165
-46 -80 -38 -99 -43 -117 -25 -15 15 -73 1 -73 -17 0 -23 -25 -27 -58 -10 -35
18 -51 54 -31 67 19 12 4 22 -21 14 -24 -8 -40 -42 -40 -88 0 -29 -1 -30 -15
-11 -33 44 -13 100 45 122 62 23 80 23 80 3 0 -25 36 -51 72 -51 33 0 33 0 8
45 -11 20 -20 37 -20 39 0 2 16 7 36 10 19 4 99 25 177 47 166 47 286 68 377
66 61 -2 65 -3 68 -27z m-698 -4 c0 -2 -15 -9 -32 -15 -30 -10 -31 -9 -14 4
18 14 46 20 46 11z m870 -61 c20 -25 4 -29 -21 -6 -18 16 -19 21 -7 21 9 0 21
-7 28 -15z m-240 -80 c8 -10 11 -41 9 -92 -2 -43 -1 -82 2 -88 4 -5 8 -64 10
-130 3 -88 8 -123 18 -131 12 -10 11 -14 -7 -30 -12 -10 -22 -25 -22 -33 0
-12 3 -12 12 -3 7 7 15 12 19 12 4 0 17 -42 29 -92 12 -51 29 -113 37 -137 13
-39 13 -45 0 -59 -14 -13 -12 -18 20 -49 20 -18 38 -31 40 -29 8 7 52 -44 96
-111 24 -38 56 -79 71 -92 14 -14 26 -33 26 -42 0 -46 97 -122 201 -158 30
-10 71 -35 92 -54 38 -36 106 -63 133 -53 8 3 14 -1 14 -9 0 -9 21 -20 58 -30
90 -25 90 -26 64 -38 -31 -14 -117 3 -219 44 -76 31 -129 35 -177 14 -15 -7
-17 -5 -11 6 5 8 1 7 -12 -4 -26 -23 -49 -22 -67 5 -10 13 -28 23 -47 24 -40
3 -52 16 -51 54 1 27 -2 30 -31 30 -18 0 -49 5 -69 10 -62 18 -94 64 -40 58
19 -2 26 -8 24 -20 -3 -20 30 -32 73 -26 l26 3 -35 41 c-46 54 -111 95 -238
151 -99 43 -166 85 -109 68 14 -4 38 -16 55 -26 57 -35 87 -20 65 32 -9 22
-27 37 -63 53 -28 13 -60 33 -70 45 -19 21 -19 21 1 21 27 0 46 24 39 48 -4
10 -20 32 -38 48 -24 23 -29 25 -23 9 16 -43 18 -58 7 -51 -7 4 -12 14 -12 22
0 16 -44 64 -58 64 -5 0 -12 -10 -16 -22 -4 -15 -9 -19 -13 -12 -5 7 -19 14
-33 15 -21 3 -27 12 -37 53 -8 34 -22 58 -45 77 l-33 28 32 -5 c42 -8 53 15
25 51 -11 14 -19 33 -17 43 1 9 0 13 -2 7 -6 -17 -66 -54 -76 -48 -5 3 -6 23
-3 45 5 30 3 39 -6 36 -7 -3 -14 -21 -16 -41 -2 -24 -8 -37 -18 -37 -22 0 -17
-13 21 -50 31 -31 33 -34 17 -46 -26 -20 -31 -17 -52 31 -10 24 -28 50 -38 56
-12 8 -17 19 -14 32 3 13 -4 26 -24 42 l-29 24 27 27 c27 27 28 27 48 9 14
-13 17 -22 10 -29 -14 -14 -13 -49 2 -64 22 -22 28 -13 28 38 0 59 -24 90 -70
90 -23 0 -33 6 -42 26 -10 22 -9 27 5 35 9 6 17 16 17 24 0 8 12 17 28 21 46
10 52 13 59 29 3 9 -2 33 -12 55 -20 44 -14 63 19 54 30 -7 96 20 96 40 0 11
10 16 30 16 18 0 33 6 36 15 5 11 16 13 48 8 37 -6 40 -5 28 10 -12 14 -9 17
25 26 21 6 49 11 63 11 14 0 32 5 40 10 21 14 36 12 50 -5z m-479 -166 c16 -8
18 -13 8 -25 -13 -16 -45 -19 -54 -4 -3 6 -1 10 6 10 7 0 4 7 -7 15 -18 14
-18 14 4 15 13 0 32 -5 43 -11z m-111 -35 c0 -17 -22 -14 -28 4 -2 7 3 12 12
12 9 0 16 -7 16 -16z m10 -104 c0 -13 -11 -13 -30 0 -12 8 -11 10 8 10 12 0
22 -4 22 -10z m-100 -41 c0 -5 -4 -9 -10 -9 -5 0 -10 7 -10 16 0 8 5 12 10 9
6 -3 10 -10 10 -16z m88 2 c3 -8 -1 -12 -9 -9 -7 2 -15 10 -17 17 -3 8 1 12 9
9 7 -2 15 -10 17 -17z m-49 -110 c11 -21 22 -56 25 -77 3 -21 14 -64 25 -94
l21 -55 -21 26 c-21 27 -99 195 -99 214 0 5 9 -1 20 -15 l20 -25 -10 28 c-19
52 -8 52 19 -2z m158 -107 c-3 -3 -12 -4 -19 -1 -8 3 -5 6 6 6 11 1 17 -2 13
-5z m193 -120 c0 -11 14 -38 30 -59 51 -64 39 -65 -80 -5 -56 28 -93 70 -77
86 3 4 24 -1 47 -10 58 -23 63 -21 56 17 -5 30 -5 31 9 13 8 -11 15 -30 15
-42z m-280 -50 c27 -58 68 -120 137 -203 15 -18 37 -56 48 -85 14 -35 30 -55
49 -65 15 -7 36 -26 45 -42 9 -16 26 -32 39 -35 12 -4 22 -12 22 -18 0 -15 52
-66 67 -66 14 0 63 -39 63 -51 0 -5 -11 -9 -25 -9 -37 0 -201 152 -255 237
-24 37 -71 111 -106 163 -57 87 -134 227 -134 244 0 21 25 -14 50 -70z m455
-84 c3 -5 1 -10 -4 -10 -6 0 -11 5 -11 10 0 6 2 10 4 10 3 0 8 -4 11 -10z
m-62 -27 c5 -3 0 -11 -9 -17 -9 -7 -14 -18 -10 -24 3 -5 0 -12 -6 -14 -8 -3
-4 -9 10 -17 12 -6 22 -17 22 -23 0 -6 7 -16 16 -22 8 -6 16 -18 17 -26 2 -8
6 -21 10 -27 13 -20 2 -16 -78 28 -77 42 -92 55 -52 44 l22 -6 -22 20 c-13 10
-23 26 -23 34 0 9 -6 17 -12 20 -9 3 -6 12 10 30 21 22 27 24 60 15 20 -6 41
-12 45 -15z m127 -213 c13 -8 13 -10 -2 -10 -9 0 -20 5 -23 10 -8 13 5 13 25
0z m-46 -39 c28 -9 52 -23 54 -30 7 -21 -112 -9 -137 13 -42 38 1 46 83 17z
m190 -7 c26 -9 45 -19 42 -22 -8 -7 -96 19 -96 29 0 12 -2 12 54 -7z m-60 -14
c25 -12 46 -24 46 -27 0 -12 -63 8 -87 27 -33 26 -18 25 41 0z m56 -60 c13 -9
13 -10 0 -10 -8 0 -22 5 -30 10 -13 9 -13 10 0 10 8 0 22 -5 30 -10z m-15 -52
c14 -6 25 -15 25 -19 0 -11 -38 1 -51 17 -14 17 -8 18 26 2z m105 -88 c0 -5
-4 -10 -9 -10 -6 0 -13 5 -16 10 -3 6 1 10 9 10 9 0 16 -4 16 -10z m137 -16
c-3 -3 -12 -4 -19 -1 -8 3 -5 6 6 6 11 1 17 -2 13 -5z m-214 -89 c52 -25 94
-40 96 -34 2 6 8 4 15 -5 34 -44 257 -98 402 -97 32 0 97 -1 144 -3 142 -6
137 -5 120 -16 -37 -24 -315 -5 -539 36 -87 16 -254 77 -328 121 -66 38 -51
37 27 -2 85 -43 105 -46 30 -4 -55 30 -81 49 -66 49 4 0 49 -20 99 -45z m547
-9 c0 -29 -17 -43 -32 -28 -6 6 -17 8 -24 5 -19 -7 -18 6 3 29 24 27 53 23 53
-6z m512 -2 c32 -3 55 -10 52 -16 -7 -11 -203 -7 -210 4 -8 13 38 28 71 23 17
-2 56 -7 87 -11z m-467 -14 c-11 -12 -13 -20 -6 -20 7 0 9 -5 6 -11 -5 -6 -12
-4 -20 8 -15 20 -3 43 23 43 13 0 12 -3 -3 -20z m820 0 c-44 -11 -65 -11 -65
0 0 6 21 9 48 9 42 -1 44 -2 17 -9z m-755 -14 c0 -3 -4 -8 -10 -11 -5 -3 -10
-1 -10 4 0 6 5 11 10 11 6 0 10 -2 10 -4z m-377 -36 c31 -6 57 -16 57 -21 0
-6 -8 -8 -17 -5 -10 2 -36 7 -58 11 -22 3 -51 13 -65 21 l-25 15 25 -5 c14 -2
51 -10 83 -16z m457 5 c-7 -8 -18 -15 -24 -15 -6 0 -2 7 8 15 25 19 32 19 16
0z"/>
<path d="M802 1848 c2 -12 11 -24 21 -26 14 -3 18 1 15 20 -2 12 -11 24 -21
26 -14 3 -18 -1 -15 -20z"/>
<path d="M875 1850 c-8 -13 5 -13 25 0 13 8 13 10 -2 10 -9 0 -20 -4 -23 -10z"/>
<path d="M603 1810 c-13 -5 -23 -11 -23 -12 0 -2 25 -1 55 0 30 2 55 8 55 13
0 11 -58 11 -87 -1z"/>
<path d="M492 1758 c3 -7 15 -15 27 -16 16 -3 22 1 19 10 -3 7 -15 15 -27 16
-16 3 -22 -1 -19 -10z"/>
<path d="M445 1730 c-5 -8 43 -40 60 -40 14 0 3 30 -14 40 -24 13 -38 13 -46
0z"/>
<path d="M890 1610 c-13 -25 -9 -92 6 -97 12 -4 34 39 33 65 0 12 -3 11 -9 -5
-13 -33 -16 -28 -12 17 5 44 -2 51 -18 20z"/>
<path d="M612 1490 c1 -13 13 -29 26 -38 21 -14 22 -13 19 7 -2 12 -14 29 -26
37 -22 16 -23 15 -19 -6z"/>
<path d="M620 1425 c14 -8 32 -14 40 -14 9 0 4 6 -10 14 -14 8 -32 14 -40 14
-9 0 -4 -6 10 -14z"/>
<path d="M560 1420 c0 -11 36 -35 68 -45 33 -10 27 7 -13 33 -37 24 -55 28
-55 12z"/>
<path d="M520 1403 c0 -14 44 -53 59 -53 7 0 11 5 9 11 -5 14 -68 53 -68 42z"/>
<path d="M520 1360 c0 -7 -7 -10 -15 -6 -23 8 -18 -8 9 -34 27 -25 60 -21 54
6 -4 21 -48 52 -48 34z"/>
<path d="M840 1265 c0 -45 22 -95 42 -95 12 0 0 104 -13 108 -5 2 -9 10 -9 18
0 8 -4 14 -10 14 -5 0 -10 -20 -10 -45z"/>
<path d="M941 1284 c0 -11 3 -14 6 -6 3 7 2 16 -1 19 -3 4 -6 -2 -5 -13z"/>
<path d="M665 1236 c16 -58 28 -71 60 -71 35 -1 39 31 9 71 -14 18 -32 35 -40
38 -17 6 -17 5 -4 -31 8 -23 8 -25 -3 -10 -34 51 -37 52 -22 3z"/>
<path d="M1010 981 c0 -11 5 -23 10 -26 6 -3 10 3 10 14 0 11 -4 23 -10 26 -5
3 -10 -3 -10 -14z"/>
<path d="M1125 770 c3 -5 8 -10 11 -10 2 0 4 5 4 10 0 6 -5 10 -11 10 -5 0 -7
-4 -4 -10z"/>
<path d="M1191 680 c-1 -8 8 -26 19 -40 15 -19 20 -21 20 -9 0 9 -9 27 -20 40
-13 17 -19 19 -19 9z"/>
<path d="M2360 1624 c-36 -18 -66 -38 -68 -42 -1 -5 13 -21 33 -36 l35 -27 0
-299 0 -300 -25 -16 c-14 -9 -25 -23 -25 -30 0 -11 25 -14 121 -14 106 0 120
2 117 16 -2 9 -19 22 -38 28 -59 19 -60 26 -60 396 1 184 1 341 0 348 0 18
-18 13 -90 -24z"/>
<path d="M3638 1623 c-38 -19 -68 -40 -68 -46 1 -7 15 -21 33 -32 l32 -20 3
-300 2 -300 -32 -27 c-28 -23 -31 -29 -18 -38 8 -6 24 -8 35 -5 11 2 62 5 113
5 72 0 92 3 92 14 0 15 -21 26 -50 26 -50 0 -68 103 -25 145 13 14 28 25 32
25 5 0 27 -28 50 -62 23 -35 61 -85 85 -111 l43 -48 78 7 c64 6 77 10 77 24 0
13 -11 19 -40 24 -29 4 -52 18 -80 46 -56 56 -130 159 -130 180 0 33 91 94
169 114 29 7 46 16 46 26 0 12 -22 15 -127 18 -106 2 -128 0 -128 -12 0 -8 14
-19 30 -25 17 -5 30 -14 30 -20 0 -16 -143 -132 -152 -123 -4 4 -9 129 -10
277 -2 168 -7 269 -13 271 -5 1 -40 -13 -77 -33z"/>
<path d="M1690 1584 c0 -7 16 -24 35 -38 l35 -27 0 -290 c0 -169 -4 -298 -10
-309 -5 -10 -21 -21 -35 -24 -14 -4 -25 -13 -25 -21 0 -13 23 -15 141 -15 127
0 140 2 137 17 -2 11 -18 20 -46 26 -25 5 -46 16 -52 27 -6 12 -9 73 -8 147
l3 128 56 3 c77 4 107 -10 126 -58 16 -40 30 -51 37 -27 3 6 7 58 10 115 6 95
5 102 -13 102 -14 0 -21 -10 -25 -35 -8 -40 -32 -48 -131 -43 l-60 3 0 135 0
135 104 3 c115 3 139 -5 166 -58 20 -39 45 -40 45 -1 0 15 3 48 6 72 l6 44
-251 0 c-180 0 -251 -3 -251 -11z"/>
<path d="M2754 1279 c-51 -19 -104 -59 -104 -78 0 -15 30 -41 46 -41 14 0 46
29 82 74 18 22 65 20 87 -4 21 -23 27 -102 9 -120 -6 -6 -39 -18 -73 -26 -118
-27 -171 -68 -171 -132 0 -44 14 -68 50 -87 39 -20 68 -19 144 6 l64 21 30
-22 30 -22 43 19 c52 23 79 50 58 57 -8 3 -27 6 -44 8 l-30 3 -5 158 -5 159
-28 24 c-36 30 -109 32 -183 3z m128 -284 c-1 -33 -7 -64 -13 -70 -5 -5 -35
-10 -66 -10 -52 0 -59 2 -70 27 -23 46 3 80 87 111 8 3 26 5 40 4 24 -2 25 -4
22 -62z"/>
<path d="M3234 1286 c-47 -21 -74 -62 -74 -111 0 -58 20 -79 126 -134 66 -35
91 -53 98 -74 15 -42 -14 -67 -78 -67 -54 0 -95 20 -122 59 -27 38 -44 27 -44
-29 0 -62 14 -71 125 -77 68 -5 89 -2 127 15 57 25 83 67 75 125 -7 54 -38 83
-134 127 -95 44 -120 75 -88 110 13 14 31 20 62 20 37 0 50 -6 89 -42 53 -49
70 -43 55 22 -5 23 -14 47 -21 54 -17 17 -159 19 -196 2z"/>
</g>
</svg>
